<?xml version="1.0" encoding="utf-8"?>
<!-- Generator: Adobe Illustrator 19.0.0, SVG Export Plug-In . SVG Version: 6.00 Build 0)  -->
<svg version="1.1" id="Ebene_1" xmlns="http://www.w3.org/2000/svg" xmlns:xlink="http://www.w3.org/1999/xlink" x="0px" y="0px"
	 viewBox="0 0 841.9 595.3" style="enable-background:new 0 0 841.9 595.3;" xml:space="preserve">
<style type="text/css">
	.st0{fill:#3C6690;}
	.st1{fill:none;stroke:#2B4C68;stroke-width:11;stroke-miterlimit:10;}
	.st2{fill:#FFFFFF;}
	.st3{fill:#FFFFFF;stroke:#FFFFFF;stroke-width:0.7;stroke-miterlimit:10;}
	.st4{fill:none;}
</style>
<g id="XMLID_19_">
	<path id="XMLID_25_" class="st0" d="M429.6,442.7c-4.8,2.8-12.6,2.8-17.3,0l-112.6-65c-4.8-2.8-8.7-9.5-8.7-15V232.6
		c0-5.5,3.9-12.3,8.7-15l112.6-65c4.8-2.8,12.6-2.8,17.3,0l112.6,65c4.8,2.8,8.7,9.5,8.7,15v130.1c0,5.5-3.9,12.3-8.7,15
		L429.6,442.7z"/>
	<path id="XMLID_24_" class="st1" d="M429.6,442.7c-4.8,2.8-12.6,2.8-17.3,0l-112.6-65c-4.8-2.8-8.7-9.5-8.7-15V232.6
		c0-5.5,3.9-12.3,8.7-15l112.6-65c4.8-2.8,12.6-2.8,17.3,0l112.6,65c4.8,2.8,8.7,9.5,8.7,15v130.1c0,5.5-3.9,12.3-8.7,15
		L429.6,442.7z"/>
</g>
<g id="XMLID_6_">
	<path id="XMLID_12_" class="st2" d="M340.2,270.7l17.6-9.1v2.6l-14.9,7.4v0.1l14.9,7.4v2.6l-17.6-9.1V270.7z"/>
	<path id="XMLID_20_" class="st2" d="M364.5,256.2v15.2c0,5.7,2.5,8.2,6,8.2c3.8,0,6.2-2.5,6.2-8.2v-15.2h3.3v14.9
		c0,7.9-4.1,11.1-9.7,11.1c-5.2,0-9.2-3-9.2-10.9v-15.1H364.5z"/>
	<path id="XMLID_22_" class="st2" d="M408.9,256.2h13.8v2.8h-10.5v8.5h9.7v2.7h-9.7v11.6h-3.3V256.2z"/>
	<path id="XMLID_27_" class="st2" d="M429.7,256.2v25.6h-3.3v-25.6H429.7z"/>
	<path id="XMLID_29_" class="st2" d="M440.2,259h-7.8v-2.8h19v2.8h-7.8v22.8h-3.3V259z"/>
	<path id="XMLID_31_" class="st2" d="M467.5,269.8h-10v9.2h11.1v2.8h-14.4v-25.6h13.8v2.8h-10.5v8.1h10V269.8z"/>
	<path id="XMLID_33_" class="st2" d="M470.5,283.3l10.6-27.5h2.6l-10.6,27.5H470.5z"/>
	<path id="XMLID_35_" class="st2" d="M502.8,272.8l-17.6,9v-2.6l15-7.4v-0.1l-15-7.4v-2.6l17.6,9V272.8z"/>
</g>
<g id="XMLID_1_">
	<path id="XMLID_3_" class="st3" d="M402.4,279.4h3v2.4h-4.6l-7.6-11.5h-4.1v9.1h4v2.4h-10v-2.4h3.4v-20.2l-3.4-0.4v-2.2
		c1.3,0.3,2.4,0.5,3.9,0.5c2.1,0,4.3-0.5,6.5-0.5c4.2,0,8,1.9,8,6.5c0,3.6-2.1,5.8-5.5,6.8L402.4,279.4z M389.1,268l2.2,0
		c5.3,0.1,7.4-2,7.4-4.7c0-3.2-2.3-4.5-5.3-4.5c-1.4,0-2.8,0.1-4.3,0.3V268z"/>
</g>
<line id="XMLID_14_" class="st4" x1="296.7" y1="270.5" x2="339" y2="270.5"/>
</svg>
