<?xml version="1.0" encoding="utf-8"?>
<!-- Generator: Adobe Illustrator 21.0.0, SVG Export Plug-In . SVG Version: 6.00 Build 0)  -->
<svg version="1.1" xmlns="http://www.w3.org/2000/svg" xmlns:xlink="http://www.w3.org/1999/xlink" x="0px" y="0px"
	 viewBox="0 0 841.9 595.3" style="enable-background:new 0 0 841.9 595.3;" xml:space="preserve">
<style type="text/css">
	.st0{fill:#3C6690;}
	.st1{fill:none;stroke:#2B4C68;stroke-width:11;stroke-miterlimit:10;}
	.st2{fill:#FFFFFF;}
	.st3{fill:#FFFFFF;stroke:#FFFFFF;stroke-width:0.7;stroke-miterlimit:10;}
	.st4{fill:none;}
	.st5{fill:none;stroke:#FFFFFF;stroke-miterlimit:10;}
	.st6{fill:none;stroke:#FFFFFF;stroke-width:2;stroke-miterlimit:10;}
</style>
<g id="Ebene_1">
	<g id="XMLID_19_">
		<path class="st0" d="M429.6,442.7c-4.8,2.8-12.6,2.8-17.3,0l-112.6-65c-4.8-2.8-8.7-9.5-8.7-15V232.6c0-5.5,3.9-12.3,8.7-15
			l112.6-65c4.8-2.8,12.6-2.8,17.3,0l112.6,65c4.8,2.8,8.7,9.5,8.7,15v130.1c0,5.5-3.9,12.3-8.7,15L429.6,442.7z"/>
		<path class="st1" d="M429.6,442.7c-4.8,2.8-12.6,2.8-17.3,0l-112.6-65c-4.8-2.8-8.7-9.5-8.7-15V232.6c0-5.5,3.9-12.3,8.7-15
			l112.6-65c4.8-2.8,12.6-2.8,17.3,0l112.6,65c4.8,2.8,8.7,9.5,8.7,15v130.1c0,5.5-3.9,12.3-8.7,15L429.6,442.7z"/>
	</g>
	<g>
		<path class="st2" d="M340.2,270.7l17.6-9.1v2.6l-14.9,7.4v0.1l14.9,7.4v2.6l-17.6-9.1V270.7z"/>
		<path class="st2" d="M364.5,256.2v15.2c0,5.7,2.5,8.2,6,8.2c3.8,0,6.2-2.5,6.2-8.2v-15.2h3.3v14.9c0,7.9-4.1,11.1-9.7,11.1
			c-5.2,0-9.2-3-9.2-10.9v-15.1H364.5z"/>
		<path class="st2" d="M408.9,256.2h13.8v2.8h-10.5v8.5h9.7v2.7h-9.7v11.6h-3.3V256.2z"/>
		<path class="st2" d="M429.7,256.2v25.6h-3.3v-25.6H429.7z"/>
		<path class="st2" d="M440.2,259h-7.8v-2.8h19v2.8h-7.8v22.8h-3.3V259z"/>
		<path class="st2" d="M467.5,269.8h-10v9.2h11.1v2.8h-14.4v-25.6h13.8v2.8h-10.5v8.1h10V269.8z"/>
		<path class="st2" d="M470.5,283.3l10.6-27.5h2.6l-10.6,27.5H470.5z"/>
		<path class="st2" d="M502.8,272.8l-17.6,9v-2.6l15-7.4v-0.1l-15-7.4v-2.6l17.6,9V272.8z"/>
	</g>
	<g>
		<path class="st3" d="M402.4,279.4h3v2.4h-4.6l-7.6-11.5h-4.1v9.1h4v2.4h-10v-2.4h3.4v-20.2l-3.4-0.4v-2.2c1.3,0.3,2.4,0.5,3.9,0.5
			c2.1,0,4.3-0.5,6.5-0.5c4.2,0,8,1.9,8,6.5c0,3.6-2.1,5.8-5.5,6.8L402.4,279.4z M389.1,268l2.2,0c5.3,0.1,7.4-2,7.4-4.7
			c0-3.2-2.3-4.5-5.3-4.5c-1.4,0-2.8,0.1-4.3,0.3V268z"/>
	</g>
	<line id="XMLID_14_" class="st4" x1="296.7" y1="270.5" x2="339" y2="270.5"/>
	<path class="st5" d="M420.4,316.4"/>
	<path class="st5" d="M420.4,316.4"/>
</g>
<g id="Ebene_2">
	<path class="st6" d="M421.5,320.3c0,0-4.7-5.1-15.5-4.9c-10.5,0.2-23.1,4.3-24.6,4.9c-0.1,0-0.2,0.1-0.2,0.2v43.6
		c0,0.2,0.2,0.3,0.4,0.2c1.8-1.1,9.8-5.9,19.7-6.1c9.8-0.2,17.8,7.4,19.6,9.3c0.1,0.2,0.4,0,0.4-0.2
		C421.4,352.6,421.5,334.9,421.5,320.3"/>
	<path class="st6" d="M421.5,367.9h-5.2c-0.3,0-0.6-0.1-0.9-0.3c-1.3-1.2-6.1-5-15.1-5c-13.3,0-16.4,4.1-16.4,4.1l-2.3-2.4"/>
	<g>
		<g>
			<path class="st2" d="M413.7,328.2c0-0.1,0-0.3-0.1-0.5c-0.1-0.2-0.2-0.4-0.4-0.5c-0.4-0.3-0.9-0.6-1.4-0.8
				c-1.1-0.4-2.2-0.7-3.4-0.8c-2.3-0.4-4.7-0.5-7.1-0.5c-2.4,0.1-4.7,0.6-7,1.2c-2.3,0.6-4.6,1.3-6.9,2.1c2.2-0.9,4.5-1.7,6.8-2.4
				c2.3-0.7,4.6-1.3,7.1-1.5c2.4-0.1,4.8,0,7.2,0.2c1.2,0.2,2.4,0.4,3.6,0.8c0.6,0.2,1.2,0.5,1.7,0.9c0.5,0.4,1.1,1.1,0.8,2.1
				L413.7,328.2z"/>
		</g>
		<g>
			<path class="st2" d="M413.7,334.7c0-0.1,0-0.3-0.1-0.5c-0.1-0.2-0.2-0.4-0.4-0.5c-0.4-0.3-0.9-0.6-1.4-0.8
				c-1.1-0.4-2.2-0.7-3.4-0.8c-2.3-0.4-4.7-0.5-7.1-0.5c-2.4,0.1-4.7,0.6-7,1.2c-2.3,0.6-4.6,1.3-6.9,2.1c2.2-0.9,4.5-1.7,6.8-2.4
				c2.3-0.7,4.6-1.3,7.1-1.5c2.4-0.1,4.8,0,7.2,0.2c1.2,0.2,2.4,0.4,3.6,0.8c0.6,0.2,1.2,0.5,1.7,0.9c0.5,0.4,1.1,1.1,0.8,2.1
				L413.7,334.7z"/>
		</g>
		<g>
			<path class="st2" d="M413.7,341.1c0-0.1,0-0.3-0.1-0.5c-0.1-0.2-0.2-0.4-0.4-0.5c-0.4-0.3-0.9-0.6-1.4-0.8
				c-1.1-0.4-2.2-0.7-3.4-0.8c-2.3-0.4-4.7-0.5-7.1-0.5c-2.4,0.1-4.7,0.6-7,1.2c-2.3,0.6-4.6,1.3-6.9,2.1c2.2-0.9,4.5-1.7,6.8-2.4
				c2.3-0.7,4.6-1.3,7.1-1.5c2.4-0.1,4.8,0,7.2,0.2c1.2,0.2,2.4,0.4,3.6,0.8c0.6,0.2,1.2,0.5,1.7,0.9c0.5,0.4,1.1,1.1,0.8,2.1
				L413.7,341.1z"/>
		</g>
		<g>
			<path class="st2" d="M427.9,328.6c-0.3-1,0.3-1.7,0.8-2.1c0.5-0.5,1.1-0.7,1.7-0.9c1.2-0.4,2.4-0.6,3.6-0.8
				c2.4-0.3,4.8-0.3,7.2-0.2c2.4,0.2,4.8,0.8,7.1,1.5c2.3,0.7,4.6,1.5,6.8,2.4c-2.3-0.8-4.5-1.5-6.9-2.1c-2.3-0.6-4.7-1.1-7-1.2
				c-2.4,0-4.8,0.1-7.1,0.5c-1.2,0.2-2.3,0.4-3.4,0.8c-0.5,0.2-1,0.5-1.4,0.8c-0.2,0.2-0.3,0.4-0.4,0.5c-0.1,0.2-0.1,0.4-0.1,0.5
				L427.9,328.6z"/>
		</g>
		<g>
			<path class="st2" d="M427.9,335.1c-0.3-1,0.3-1.7,0.8-2.1c0.5-0.5,1.1-0.7,1.7-0.9c1.2-0.4,2.4-0.6,3.6-0.8
				c2.4-0.3,4.8-0.3,7.2-0.2c2.4,0.2,4.8,0.8,7.1,1.5c2.3,0.7,4.6,1.5,6.8,2.4c-2.3-0.8-4.5-1.5-6.9-2.1c-2.3-0.6-4.7-1.1-7-1.2
				c-2.4,0-4.8,0.1-7.1,0.5c-1.2,0.2-2.3,0.4-3.4,0.8c-0.5,0.2-1,0.5-1.4,0.8c-0.2,0.2-0.3,0.4-0.4,0.5c-0.1,0.2-0.1,0.4-0.1,0.5
				L427.9,335.1z"/>
		</g>
		<g>
			<path class="st2" d="M427.9,341.6c-0.3-1,0.3-1.7,0.8-2.1c0.5-0.5,1.1-0.7,1.7-0.9c1.2-0.4,2.4-0.6,3.6-0.8
				c2.4-0.3,4.8-0.3,7.2-0.2c2.4,0.2,4.8,0.8,7.1,1.5c2.3,0.7,4.6,1.5,6.8,2.4c-2.3-0.8-4.5-1.5-6.9-2.1c-2.3-0.6-4.7-1.1-7-1.2
				c-2.4,0-4.8,0.1-7.1,0.5c-1.2,0.2-2.3,0.4-3.4,0.8c-0.5,0.2-1,0.5-1.4,0.8c-0.2,0.2-0.3,0.4-0.4,0.5c-0.1,0.2-0.1,0.4-0.1,0.5
				L427.9,341.6z"/>
		</g>
	</g>
	<path class="st5" d="M414.1,341.3"/>
	<path class="st6" d="M421.6,320.3c0,0,4.7-5.1,15.5-4.9c10.5,0.2,23.1,4.3,24.6,4.9c0.1,0,0.2,0.1,0.2,0.2v43.6
		c0,0.2-0.2,0.3-0.4,0.2c-1.8-1.1-9.8-5.9-19.7-6.1c-9.8-0.2-17.8,7.4-19.6,9.3c-0.1,0.2-0.4,0-0.4-0.2
		C421.6,352.7,421.6,334.9,421.6,320.3"/>
	<path class="st6" d="M421.5,367.9h5.2c0.3,0,0.6-0.1,0.9-0.3c1.3-1.2,6.1-5,15.1-5c13.3,0,16.4,4.1,16.4,4.1l2.3-2.4"/>
</g>
</svg>
